<!-- sample rectangle -->
<svg width="300" height="500" xmlns="http://www.w3.org/2000/svg">

    <style>
     .posicaoDedo {
        font: italic bold 40px serif;
        fill: red;

      }     
    </style>

  <!-- Nome do acorde -->
  <text id="nomeAcorde" x="50%" y="40" class="posicaoDedo" dominant-baseline="middle" text-anchor="middle">Bbm</text>
  <text id="primeiraCasa" x="20" y="105" rotate="270" dominant-baseline="middle" text-anchor="middle">1</text>
  <!-- Cordas -->
  <line x1="25" x2="25" y1="60" y2="484" stroke="black" stroke-width="2"></line>  
  <line x1="75" x2="75" y1="60" y2="484" stroke="black" stroke-width="2"></line>  
  <line x1="125" x2="125" y1="60" y2="484" stroke="black" stroke-width="2"></line>  
  <line x1="175" x2="175" y1="60" y2="484" stroke="black" stroke-width="2"></line>  
  <line x1="225" x2="225" y1="60" y2="484" stroke="black" stroke-width="2"></line>  
  <line x1="275" x2="275" y1="60" y2="484" stroke="black" stroke-width="2"></line>
  <!-- trastes -->
  <line x1="24" x2="276" y1="60" y2="60" stroke="black" stroke-width="4"></line>
  <line x1="24" x2="276" y1="484" y2="484" stroke="black" stroke-width="4"></line>
  <line x1="25" x2="275" y1="145" y2="145" stroke="black" stroke-width="2"></line>
  <line x1="25" x2="275" y1="229" y2="229" stroke="black" stroke-width="2"></line>
  <line x1="25" x2="275" y1="313" y2="313" stroke="black" stroke-width="2"></line>
  <line x1="25" x2="275" y1="397" y2="397" stroke="black" stroke-width="2"></line>

  <!-- acorde -->
  <line x1="65" x2="285" y1="105" y2="105" stroke="red" stroke-width="10" stroke-linecap="round"></line>
  <text x="235" y="195" class="posicaoDedo corda2" rotate="270">2</text>
  <text x="185" y="281" class="posicaoDedo" rotate="270">4</text>
  <text x="135" y="281" class="posicaoDedo" rotate="270">3</text>
</svg>